<svg width="1107" height="146" viewBox="0 0 1107 146" fill="none" xmlns="http://www.w3.org/2000/svg">
<path d="M224.2 2.99999L178.4 143H143.6L112.8 48.2L81 143H46.4L0.4 2.99999H34L65.6 101.4L98.6 2.99999H128.6L160.6 102.2L193.2 2.99999H224.2ZM350.688 117V143H242.288V2.99999H348.088V29H274.488V59.4H339.488V84.6H274.488V117H350.688ZM376.467 2.99999H408.867V116.6H479.067V143H376.467V2.99999ZM561.827 145.4C547.56 145.4 534.627 142.333 523.027 136.2C511.56 129.933 502.493 121.333 495.827 110.4C489.293 99.3333 486.027 86.8667 486.027 73C486.027 59.1333 489.293 46.7333 495.827 35.8C502.493 24.7333 511.56 16.1333 523.027 10C534.627 3.73333 547.627 0.599998 562.027 0.599998C574.16 0.599998 585.093 2.73333 594.827 7C604.693 11.2667 612.96 17.4 619.627 25.4L598.827 44.6C589.36 33.6667 577.627 28.2 563.627 28.2C554.96 28.2 547.227 30.1333 540.427 34C533.627 37.7333 528.293 43 524.427 49.8C520.693 56.6 518.827 64.3333 518.827 73C518.827 81.6667 520.693 89.4 524.427 96.2C528.293 103 533.627 108.333 540.427 112.2C547.227 115.933 554.96 117.8 563.627 117.8C577.627 117.8 589.36 112.267 598.827 101.2L619.627 120.4C612.96 128.533 604.693 134.733 594.827 139C584.96 143.267 573.96 145.4 561.827 145.4ZM706.377 145.4C691.843 145.4 678.71 142.267 666.977 136C655.377 129.733 646.243 121.133 639.577 110.2C633.043 99.1333 629.777 86.7333 629.777 73C629.777 59.2667 633.043 46.9333 639.577 36C646.243 24.9333 655.377 16.2667 666.977 10C678.71 3.73333 691.843 0.599998 706.377 0.599998C720.91 0.599998 733.977 3.73333 745.577 10C757.177 16.2667 766.31 24.9333 772.977 36C779.643 46.9333 782.977 59.2667 782.977 73C782.977 86.7333 779.643 99.1333 772.977 110.2C766.31 121.133 757.177 129.733 745.577 136C733.977 142.267 720.91 145.4 706.377 145.4ZM706.377 117.8C714.643 117.8 722.11 115.933 728.777 112.2C735.443 108.333 740.643 103 744.377 96.2C748.243 89.4 750.177 81.6667 750.177 73C750.177 64.3333 748.243 56.6 744.377 49.8C740.643 43 735.443 37.7333 728.777 34C722.11 30.1333 714.643 28.2 706.377 28.2C698.11 28.2 690.643 30.1333 683.977 34C677.31 37.7333 672.043 43 668.177 49.8C664.443 56.6 662.577 64.3333 662.577 73C662.577 81.6667 664.443 89.4 668.177 96.2C672.043 103 677.31 108.333 683.977 112.2C690.643 115.933 698.11 117.8 706.377 117.8ZM934.727 143L934.527 59L893.327 128.2H878.727L837.727 60.8V143H807.327V2.99999H834.127L886.527 90L938.127 2.99999H964.727L965.127 143H934.727ZM1106.74 117V143H998.342V2.99999H1104.14V29H1030.54V59.4H1095.54V84.6H1030.54V117H1106.74Z" fill="#F6F6F6"/>
</svg>
