<svg width="1478" height="188" viewBox="0 0 1478 188" fill="none" xmlns="http://www.w3.org/2000/svg">
<path d="M103.4 76.2C111.4 78.7333 117.667 83 122.2 89C126.733 94.8667 129 102.133 129 110.8C129 123.067 124.2 132.533 114.6 139.2C105.133 145.733 91.2667 149 73 149H0.600001V8.99999H69C86.0667 8.99999 99.1333 12.2667 108.2 18.8C117.4 25.3333 122 34.2 122 45.4C122 52.2 120.333 58.2667 117 63.6C113.8 68.9333 109.267 73.1333 103.4 76.2ZM32.8 33.4V66.4H65C73 66.4 79.0667 65 83.2 62.2C87.3333 59.4 89.4 55.2667 89.4 49.8C89.4 44.3333 87.3333 40.2667 83.2 37.6C79.0667 34.8 73 33.4 65 33.4H32.8ZM70.6 124.6C79.1333 124.6 85.5333 123.2 89.8 120.4C94.2 117.6 96.4 113.267 96.4 107.4C96.4 95.8 87.8 90 70.6 90H32.8V124.6H70.6ZM256.73 95.6C256.73 96 256.53 98.8 256.13 104H174.73C176.196 110.667 179.663 115.933 185.13 119.8C190.596 123.667 197.396 125.6 205.53 125.6C211.13 125.6 216.063 124.8 220.33 123.2C224.73 121.467 228.796 118.8 232.53 115.2L249.13 133.2C238.996 144.8 224.196 150.6 204.73 150.6C192.596 150.6 181.863 148.267 172.53 143.6C163.196 138.8 155.996 132.2 150.93 123.8C145.863 115.4 143.33 105.867 143.33 95.2C143.33 84.6667 145.796 75.2 150.73 66.8C155.796 58.2667 162.663 51.6667 171.33 47C180.13 42.2 189.93 39.8 200.73 39.8C211.263 39.8 220.796 42.0667 229.33 46.6C237.863 51.1333 244.53 57.6667 249.33 66.2C254.263 74.6 256.73 84.4 256.73 95.6ZM200.93 63.4C193.863 63.4 187.93 65.4 183.13 69.4C178.33 73.4 175.396 78.8667 174.33 85.8H227.33C226.263 79 223.33 73.6 218.53 69.6C213.73 65.4667 207.863 63.4 200.93 63.4ZM336.342 8.99999H368.742V122.6H438.942V149H336.342V8.99999ZM457.045 8.99999H489.445V149H457.045V8.99999ZM566.67 106.8L551.67 121.6V149H520.47V0.599991H551.67V84.6L597.27 41.4H634.47L589.67 87L638.47 149H600.67L566.67 106.8ZM753.214 95.6C753.214 96 753.014 98.8 752.614 104H671.214C672.681 110.667 676.147 115.933 681.614 119.8C687.081 123.667 693.881 125.6 702.014 125.6C707.614 125.6 712.547 124.8 716.814 123.2C721.214 121.467 725.281 118.8 729.014 115.2L745.614 133.2C735.481 144.8 720.681 150.6 701.214 150.6C689.081 150.6 678.347 148.267 669.014 143.6C659.681 138.8 652.481 132.2 647.414 123.8C642.347 115.4 639.814 105.867 639.814 95.2C639.814 84.6667 642.281 75.2 647.214 66.8C652.281 58.2667 659.147 51.6667 667.814 47C676.614 42.2 686.414 39.8 697.214 39.8C707.747 39.8 717.281 42.0667 725.814 46.6C734.347 51.1333 741.014 57.6667 745.814 66.2C750.747 74.6 753.214 84.4 753.214 95.6ZM697.414 63.4C690.347 63.4 684.414 65.4 679.614 69.4C674.814 73.4 671.881 78.8667 670.814 85.8H723.814C722.747 79 719.814 73.6 715.014 69.6C710.214 65.4667 704.347 63.4 697.414 63.4ZM943.027 40.6V187.8H905.027V139.4C897.693 147 887.627 150.8 874.827 150.8C864.96 150.8 855.96 148.533 847.827 144C839.827 139.333 833.427 132.8 828.627 124.4C823.96 115.867 821.627 106 821.627 94.8C821.627 83.6 823.96 73.8 828.627 65.4C833.427 56.8667 839.827 50.3333 847.827 45.8C855.96 41.1333 864.96 38.8 874.827 38.8C889.093 38.8 899.76 43 906.827 51.4V40.6H943.027ZM882.827 120.6C889.493 120.6 894.96 118.333 899.227 113.8C903.493 109.133 905.627 102.8 905.627 94.8C905.627 86.8 903.493 80.5333 899.227 76C894.96 71.3333 889.493 69 882.827 69C876.16 69 870.693 71.3333 866.427 76C862.16 80.5333 860.027 86.8 860.027 94.8C860.027 102.8 862.16 109.133 866.427 113.8C870.693 118.333 876.16 120.6 882.827 120.6ZM1081.49 40.6V149H1045.29V137.4C1041.29 141.8 1036.49 145.133 1030.89 147.4C1025.29 149.667 1019.36 150.8 1013.09 150.8C999.089 150.8 987.889 146.667 979.489 138.4C971.222 130.133 967.089 117.733 967.089 101.2V40.6H1005.09V95C1005.09 103.133 1006.62 109.067 1009.69 112.8C1012.76 116.533 1017.22 118.4 1023.09 118.4C1029.09 118.4 1033.96 116.333 1037.69 112.2C1041.56 107.933 1043.49 101.467 1043.49 92.8V40.6H1081.49ZM1216.77 95C1216.77 95.2667 1216.57 98.4 1216.17 104.4H1137.37C1138.97 110 1142.03 114.333 1146.57 117.4C1151.23 120.333 1157.03 121.8 1163.97 121.8C1169.17 121.8 1173.63 121.067 1177.37 119.6C1181.23 118.133 1185.1 115.733 1188.97 112.4L1208.97 133.2C1198.43 144.933 1183.03 150.8 1162.77 150.8C1150.1 150.8 1138.97 148.4 1129.37 143.6C1119.77 138.8 1112.3 132.133 1106.97 123.6C1101.77 115.067 1099.17 105.4 1099.17 94.6C1099.17 83.9333 1101.7 74.4 1106.77 66C1111.97 57.4667 1119.1 50.8 1128.17 46C1137.23 41.2 1147.43 38.8 1158.77 38.8C1169.57 38.8 1179.37 41.0667 1188.17 45.6C1196.97 50 1203.9 56.4667 1208.97 65C1214.17 73.4 1216.77 83.4 1216.77 95ZM1158.97 65.8C1153.1 65.8 1148.17 67.4667 1144.17 70.8C1140.3 74.1333 1137.83 78.6667 1136.77 84.4H1181.17C1180.1 78.6667 1177.57 74.1333 1173.57 70.8C1169.7 67.4667 1164.83 65.8 1158.97 65.8ZM1345.09 95C1345.09 95.2667 1344.89 98.4 1344.49 104.4H1265.69C1267.29 110 1270.35 114.333 1274.89 117.4C1279.55 120.333 1285.35 121.8 1292.29 121.8C1297.49 121.8 1301.95 121.067 1305.69 119.6C1309.55 118.133 1313.42 115.733 1317.29 112.4L1337.29 133.2C1326.75 144.933 1311.35 150.8 1291.09 150.8C1278.42 150.8 1267.29 148.4 1257.69 143.6C1248.09 138.8 1240.62 132.133 1235.29 123.6C1230.09 115.067 1227.49 105.4 1227.49 94.6C1227.49 83.9333 1230.02 74.4 1235.09 66C1240.29 57.4667 1247.42 50.8 1256.49 46C1265.55 41.2 1275.75 38.8 1287.09 38.8C1297.89 38.8 1307.69 41.0667 1316.49 45.6C1325.29 50 1332.22 56.4667 1337.29 65C1342.49 73.4 1345.09 83.4 1345.09 95ZM1287.29 65.8C1281.42 65.8 1276.49 67.4667 1272.49 70.8C1268.62 74.1333 1266.15 78.6667 1265.09 84.4H1309.49C1308.42 78.6667 1305.89 74.1333 1301.89 70.8C1298.02 67.4667 1293.15 65.8 1287.29 65.8ZM1433.21 38.8C1446.67 38.8 1457.47 42.8 1465.61 50.8C1473.87 58.8 1478.01 70.8667 1478.01 87V149H1440.01V93.2C1440.01 78.4 1434.07 71 1422.21 71C1415.67 71 1410.41 73.1333 1406.41 77.4C1402.54 81.6667 1400.61 88.0667 1400.61 96.6V149H1362.61V40.6H1398.81V52.4C1403.07 48 1408.14 44.6667 1414.01 42.4C1419.87 40 1426.27 38.8 1433.21 38.8Z" fill="#F6F6F6"/>
</svg>
